<svg width="24" height="24" viewBox="0 0 24 24" fill="none" xmlns="http://www.w3.org/2000/svg">
<path d="M4 0.5H20C21.933 0.5 23.5 2.067 23.5 4V20C23.5 21.933 21.933 23.5 20 23.5H4C2.067 23.5 0.5 21.933 0.5 20V4C0.5 2.067 2.067 0.5 4 0.5Z" fill="#F3F8FE"/>
<path d="M4 0.5H20C21.933 0.5 23.5 2.067 23.5 4V20C23.5 21.933 21.933 23.5 20 23.5H4C2.067 23.5 0.5 21.933 0.5 20V4C0.5 2.067 2.067 0.5 4 0.5Z" stroke="#F3F8FE"/>
<path d="M12 7.81818C12.3012 7.81818 12.5455 8.06239 12.5455 8.36364V11.4545H15.6364C15.9376 11.4545 16.1818 11.6988 16.1818 12C16.1818 12.3012 15.9376 12.5455 15.6364 12.5455H12.5455V15.6364C12.5455 15.9376 12.3012 16.1818 12 16.1818C11.6988 16.1818 11.4545 15.9376 11.4545 15.6364V12.5455H8.36364C8.06239 12.5455 7.81818 12.3012 7.81818 12C7.81818 11.6988 8.06239 11.4545 8.36364 11.4545H11.4545V8.36364C11.4545 8.06239 11.6988 7.81818 12 7.81818Z" fill="#6D717F"/>
<path fill-rule="evenodd" clip-rule="evenodd" d="M12 20C16.4183 20 20 16.4183 20 12C20 7.58172 16.4183 4 12 4C7.58172 4 4 7.58172 4 12C4 16.4183 7.58172 20 12 20ZM12 18.9091C15.8158 18.9091 18.9091 15.8158 18.9091 12C18.9091 8.18421 15.8158 5.09091 12 5.09091C8.18421 5.09091 5.09091 8.18421 5.09091 12C5.09091 15.8158 8.18421 18.9091 12 18.9091Z" fill="#6D717F"/>
</svg>
