<svg width="24" height="24" viewBox="0 0 24 24" fill="none" xmlns="http://www.w3.org/2000/svg">
<path d="M0 4C0 1.79086 1.79086 0 4 0H20C22.2091 0 24 1.79086 24 4V20C24 22.2091 22.2091 24 20 24H4C1.79086 24 0 22.2091 0 20V4Z" fill="#F3F8FE"/>
<path d="M9.76201 20C9.38903 20 9.03143 19.8517 8.76769 19.588C8.50394 19.3242 8.35567 18.9666 8.35567 18.5937V8.04607C8.35567 7.67309 8.50394 7.31549 8.76769 7.05175C9.03143 6.788 9.38903 6.63973 9.76201 6.63973H16.7937C17.1667 6.63973 17.5243 6.788 17.7881 7.05175C18.0518 7.31549 18.2001 7.67309 18.2001 8.04607V18.5937C18.2001 18.9666 18.0518 19.3242 17.7881 19.588C17.5243 19.8517 17.1667 20 16.7937 20H9.76201ZM9.41043 8.04607V18.5937C9.41043 18.6869 9.4475 18.7763 9.51343 18.8422C9.57937 18.9082 9.66877 18.9452 9.76201 18.9452H16.7937C16.887 18.9452 16.9764 18.9082 17.0423 18.8422C17.1083 18.7763 17.1453 18.6869 17.1453 18.5937V8.04607C17.1453 7.95283 17.1083 7.86343 17.0423 7.79749C16.9764 7.73156 16.887 7.69449 16.7937 7.69449H9.76201C9.71584 7.69467 9.67001 7.70412 9.62742 7.72196C9.58484 7.7398 9.54595 7.76609 9.51343 7.79887C9.48091 7.83164 9.45539 7.87013 9.4379 7.91286C9.4204 7.95558 9.41162 8.00128 9.4118 8.04745L9.41043 8.04607ZM5.80118 17.3329V5.59596C5.80519 5.36058 5.85822 5.12873 5.95637 4.91476C6.05452 4.70079 6.19535 4.50963 6.37113 4.35305C6.75844 4.10758 7.21073 3.98502 7.66898 4.00146H15.1745C15.3144 4.00146 15.4492 4.05638 15.5481 4.15528C15.647 4.25418 15.7019 4.38897 15.7019 4.52884C15.7019 4.66871 15.647 4.8035 15.5481 4.9024C15.4492 5.0013 15.3144 5.05622 15.1745 5.05622H7.66898C7.44081 5.04963 7.21544 5.09731 7.00976 5.1963C6.91462 5.31685 6.85945 5.46582 6.85456 5.61931V17.3398C6.85456 17.4796 6.79965 17.613 6.70074 17.7119C6.60184 17.8108 6.46705 17.8671 6.32718 17.8671C6.18731 17.8671 6.0539 17.8108 5.955 17.7119C5.85609 17.613 5.7998 17.4796 5.7998 17.3398L5.80118 17.3329Z" fill="#575A66"/>
</svg>
