<svg width="24" height="24" viewBox="0 0 24 24" fill="none" xmlns="http://www.w3.org/2000/svg">
<path d="M0 4C0 1.79086 1.79086 0 4 0H20C22.2091 0 24 1.79086 24 4V20C24 22.2091 22.2091 24 20 24H4C1.79086 24 0 22.2091 0 20V4Z" fill="#F3F8FE"/>
<path d="M18.5475 4C19.3497 4 20 4.65611 20 5.46547L20 11.3273C20 12.1367 19.3497 12.7928 18.5475 12.7928H16.3686C16.2358 12.7931 16.1036 12.7749 15.9757 12.7386C15.9031 12.9584 15.4129 14.4444 14.749 16C13.3974 19.1712 12.5702 19.7538 12.0618 19.9186C11.9031 19.9721 11.7368 19.9996 11.5694 20C11.2096 20.0026 10.8647 19.8555 10.6158 19.5933C9.88373 18.8437 9.87502 17.2251 9.87938 17.0287V15.0181C9.48646 15.0137 8.91343 15.0093 8.23654 15.0093C7.4972 15.0093 6.784 15.0137 6.12018 15.0225H6.06934C5.40622 15.0775 4.7605 14.7905 4.35316 14.2597C3.95765 13.533 3.89098 12.6698 4.17014 11.8901C4.22534 11.5025 4.63132 8.74885 4.8877 6.79391C4.97008 5.85226 5.46392 4.99656 6.23493 4.45942C6.57744 4.22629 6.96772 4.07425 7.37664 4.01466L7.40641 4.01026L16.0128 4.01026V4.04616C16.1286 4.01671 16.2477 4.0017 16.3672 4.00147L18.5475 4ZM18.9106 11.3273V5.46547C18.9106 5.26313 18.748 5.0991 18.5475 5.0991H16.3686C16.1977 5.09939 16.0501 5.21992 16.0142 5.38853V11.405C16.0501 11.5736 16.1977 11.6941 16.3686 11.6944H18.5475C18.6439 11.6944 18.7364 11.6557 18.8045 11.5869C18.8726 11.518 18.9108 11.4246 18.9106 11.3273ZM14.9204 5.10936L7.47468 5.10936C7.23094 5.15729 7.00016 5.25722 6.7978 5.40245C6.31413 5.77062 6.01153 6.33151 5.96767 6.94119C5.6895 9.04194 5.24139 12.0703 5.23703 12.0974L5.22832 12.1487L5.21161 12.1956C5.0394 12.6579 5.05006 13.1692 5.24139 13.6237C5.45315 13.8512 5.76049 13.9619 6.06717 13.9212H6.1013C6.77238 13.9124 7.49139 13.908 8.23437 13.908C9.50099 13.908 10.4205 13.9212 10.4284 13.9212L10.963 13.93V17.0368C10.9275 17.6622 11.0766 18.2841 11.3915 18.8239C11.4335 18.8774 11.4982 18.9075 11.5658 18.9053C11.6198 18.9021 11.6733 18.892 11.7248 18.8752C11.8439 18.8364 12.494 18.4957 13.7432 15.5691C14.3416 14.1667 14.8042 12.7943 14.919 12.4535V11.4343C14.9161 11.3987 14.9146 11.363 14.9146 11.3273L14.9146 5.46547C14.9146 5.42834 14.9161 5.39268 14.919 5.35849L14.9204 5.10936Z" fill="#575A66"/>
</svg>
