<svg width="24" height="24" viewBox="0 0 24 24" fill="none" xmlns="http://www.w3.org/2000/svg">
<path d="M4 0.5H20C21.933 0.5 23.5 2.067 23.5 4V20C23.5 21.933 21.933 23.5 20 23.5H4C2.067 23.5 0.5 21.933 0.5 20V4C0.5 2.067 2.067 0.5 4 0.5Z" fill="#FBF7FD"/>
<path d="M4 0.5H20C21.933 0.5 23.5 2.067 23.5 4V20C23.5 21.933 21.933 23.5 20 23.5H4C2.067 23.5 0.5 21.933 0.5 20V4C0.5 2.067 2.067 0.5 4 0.5Z" stroke="#FBF7FD"/>
<path d="M15.4377 5.48785C15.6522 5.48393 15.8588 5.56816 16.009 5.72125C16.4506 6.15909 16.4663 7.11502 16.465 7.23102L16.4787 8.41852C16.713 8.41851 17.0546 8.41713 17.4582 8.41266C17.8992 8.40777 18.325 8.40076 18.7209 8.39117L18.7511 8.3902C19.1463 8.35334 19.534 8.51889 19.7804 8.82965C20.021 9.25617 20.0658 9.76582 19.9045 10.2281C19.874 10.4583 19.65 12.0869 19.5099 13.2427C19.4669 13.7992 19.178 14.3072 18.7218 14.6295C18.5191 14.7694 18.2876 14.862 18.0441 14.9L18.0265 14.9029L13.5158 14.9517L13.5334 16.4771C13.5387 16.955 13.1544 17.3468 12.6759 17.3521L11.3771 17.3668C11.2979 17.3678 11.2183 17.3581 11.1418 17.3375C11.0995 17.4691 10.8171 18.349 10.4318 19.2711C9.64654 21.1526 9.1568 21.5024 8.85466 21.6031C8.7604 21.6356 8.66142 21.6525 8.56169 21.6539C8.34721 21.6578 8.14052 21.5735 7.9904 21.4205C7.54884 20.9827 7.53304 20.0267 7.53435 19.9107L7.52068 18.7232C7.28633 18.7232 6.94468 18.7246 6.54118 18.7291C6.10022 18.734 5.67435 18.741 5.27849 18.7505L5.24821 18.7515C4.85321 18.7882 4.46625 18.6227 4.21989 18.3121C3.9794 17.8858 3.93376 17.3767 4.09489 16.9146C4.12527 16.6854 4.34938 15.056 4.48943 13.9C4.53242 13.3435 4.82125 12.8345 5.27751 12.5123C5.48026 12.3723 5.71273 12.2806 5.95622 12.2427L5.9738 12.2398L10.4826 12.19L10.466 10.6646C10.4609 10.1869 10.8442 9.7951 11.3224 9.78961L12.6222 9.77594C12.7015 9.77486 12.7811 9.78464 12.8576 9.80524C12.8995 9.67494 13.1818 8.79374 13.5676 7.87067C14.3529 5.98894 14.8425 5.63936 15.1447 5.53864C15.239 5.50605 15.3379 5.48921 15.4377 5.48785ZM6.02165 12.8882C5.8767 12.9181 5.73996 12.979 5.62029 13.066C5.33423 13.2866 5.15708 13.6197 5.13493 13.98C4.98285 15.2224 4.73501 17.0138 4.73259 17.0298L4.72771 17.0601L4.71892 17.0875C4.61925 17.3615 4.62818 17.6641 4.74529 17.9312C4.87307 18.0641 5.05778 18.1272 5.2404 18.1011H5.26091C5.66092 18.0915 6.08949 18.0836 6.53239 18.0787C7.28086 18.0704 7.82634 18.0719 7.84099 18.0718L8.16032 18.0738L8.18083 19.9088C8.16386 20.278 8.25633 20.644 8.44743 20.9605C8.47278 20.9917 8.51179 21.009 8.55193 21.0074C8.58403 21.0052 8.61613 20.999 8.64665 20.9888C8.71744 20.9651 9.10347 20.7594 9.82927 19.023C10.1769 18.191 10.4437 17.3773 10.5099 17.1754L10.5031 16.5738C10.5012 16.553 10.5004 16.5321 10.5002 16.5113L10.4611 13.0494C10.4609 13.0275 10.4616 13.0061 10.4631 12.9859L10.4621 12.8394L6.02165 12.8882ZM12.8654 14.9439C12.8049 14.9578 12.743 14.9665 12.6808 14.9673L11.381 14.983C11.2969 14.9839 11.215 14.9722 11.1379 14.9507L11.1564 16.5494C11.1789 16.6486 11.2675 16.7192 11.3693 16.7183L12.6691 16.7037C12.7266 16.703 12.7813 16.6793 12.8215 16.6382C12.8616 16.5971 12.8837 16.5414 12.883 16.4839L12.8654 14.9439ZM11.3263 12.8238C11.2477 12.8248 11.178 12.8677 11.1408 12.9332L11.1545 14.1197C11.1559 14.2391 11.2537 14.3348 11.3732 14.3336L12.673 14.3189C12.7517 14.3179 12.8204 14.2742 12.8576 14.2086L12.8449 13.023C12.8436 12.9035 12.7448 12.8078 12.6252 12.8091L11.3263 12.8238ZM15.3527 6.15289C15.2819 6.17662 14.896 6.38213 14.1701 8.11871C13.8224 8.95083 13.5556 9.76441 13.4894 9.96637L13.4963 10.5679C13.4982 10.589 13.499 10.6103 13.4992 10.6314L13.5383 14.0933C13.5385 14.1152 13.5378 14.1366 13.5363 14.1568L13.5373 14.3033L17.9787 14.2545C18.1236 14.2245 18.2604 14.1637 18.3801 14.0767C18.6661 13.8561 18.8432 13.5229 18.8654 13.1627C19.0167 11.9267 19.2618 10.1473 19.2668 10.1129L19.2717 10.0826L19.2814 10.0543C19.3811 9.78021 19.3711 9.47859 19.2541 9.21149C19.1263 9.07858 18.9426 9.01457 18.7599 9.04059L18.7394 9.04156C18.3392 9.0512 17.9101 9.05813 17.467 9.06305C16.713 9.07141 16.1652 9.06984 16.1584 9.06989L15.839 9.06793L15.8185 7.23297C15.8355 6.86372 15.743 6.49774 15.5519 6.18121C15.5265 6.15001 15.4876 6.13265 15.4474 6.13434C15.4153 6.13656 15.3833 6.14267 15.3527 6.15289ZM11.3302 10.439C11.2727 10.4397 11.2171 10.4624 11.1769 10.5035C11.1368 10.5446 11.1146 10.6004 11.1154 10.6578L11.132 12.1978C11.193 12.1837 11.2559 12.1762 11.3185 12.1754L12.6183 12.1597C12.7023 12.1588 12.7835 12.1706 12.8605 12.192L12.8429 10.5923C12.8203 10.4933 12.7317 10.4236 12.6301 10.4244L11.3302 10.439ZM10.4865 3.31891L10.6301 3.76227H13.4054L11.5373 5.11871L11.1593 5.39215L11.3049 5.83649L12.0177 8.0318L10.1506 6.67535L9.77263 6.40094L9.39568 6.67535L7.52849 8.0318L8.24138 5.83649L8.38689 5.39215L8.00896 5.11871L6.14079 3.76227H8.91618L9.05974 3.31891L9.77361 1.1236L10.4865 3.31891Z" fill="#575A66"/>
</svg>
