<svg width="24" height="24" viewBox="0 0 24 24" fill="none" xmlns="http://www.w3.org/2000/svg">
<path d="M4 0.5H20C21.933 0.5 23.5 2.067 23.5 4V20C23.5 21.933 21.933 23.5 20 23.5H4C2.067 23.5 0.5 21.933 0.5 20V4C0.5 2.067 2.067 0.5 4 0.5Z" fill="#FBF7FD"/>
<path d="M4 0.5H20C21.933 0.5 23.5 2.067 23.5 4V20C23.5 21.933 21.933 23.5 20 23.5H4C2.067 23.5 0.5 21.933 0.5 20V4C0.5 2.067 2.067 0.5 4 0.5Z" stroke="#FBF7FD"/>
<path d="M16.1797 14.8341C16.3947 14.8397 16.5828 14.9818 16.6455 15.1876V15.1886C16.6457 15.1896 16.6459 15.1917 16.6465 15.1935C16.648 15.1983 16.651 15.206 16.6543 15.2159C16.6612 15.2369 16.6714 15.2692 16.6855 15.3087C16.7141 15.3886 16.7566 15.5 16.8105 15.6222C16.9248 15.881 17.0686 16.1361 17.2148 16.2823C17.3655 16.4327 17.6464 16.5978 17.9336 16.7364C18.069 16.8018 18.1934 16.8558 18.2832 16.8927C18.3278 16.911 18.3646 16.9253 18.3887 16.9347C18.4001 16.9391 18.4093 16.9423 18.415 16.9444C18.4178 16.9455 18.4207 16.9469 18.4219 16.9474H18.4229C18.6194 17.0198 18.75 17.2076 18.75 17.4171C18.7498 17.6263 18.6192 17.8135 18.4229 17.8858L18.4219 17.8868C18.4207 17.8872 18.4179 17.8877 18.415 17.8888C18.4093 17.8909 18.4004 17.895 18.3887 17.8995C18.3645 17.9088 18.3279 17.9231 18.2832 17.9415C18.1934 17.9784 18.069 18.0314 17.9336 18.0968C17.6461 18.2355 17.3654 18.4013 17.2148 18.5519C17.0685 18.6982 16.9248 18.953 16.8105 19.212C16.7566 19.3343 16.7141 19.4456 16.6855 19.5255C16.6715 19.5648 16.6611 19.5964 16.6543 19.6173C16.6509 19.6277 16.648 19.6359 16.6465 19.6407C16.6458 19.6429 16.6458 19.6448 16.6455 19.6456L16.6152 19.7218C16.5321 19.89 16.3592 19.9999 16.167 20.0001C15.947 20.0001 15.7526 19.856 15.6885 19.6456C15.6882 19.6448 15.6873 19.6429 15.6865 19.6407C15.685 19.636 15.683 19.6276 15.6797 19.6173C15.6728 19.5964 15.6615 19.5649 15.6475 19.5255C15.619 19.4457 15.5773 19.3341 15.5234 19.212C15.4093 18.9533 15.2653 18.6983 15.1191 18.5519C14.9686 18.4013 14.6869 18.2355 14.3994 18.0968C14.264 18.0314 14.1396 17.9784 14.0498 17.9415C14.0054 17.9233 13.9695 17.9089 13.9453 17.8995C13.9335 17.8949 13.9238 17.891 13.918 17.8888C13.9156 17.8879 13.9133 17.8872 13.9121 17.8868L13.9111 17.8858C13.7113 17.8124 13.5802 17.6201 13.584 17.4073C13.588 17.1945 13.7263 17.0075 13.9287 16.9415L13.9346 16.9395C13.94 16.9377 13.9487 16.9347 13.96 16.9308C13.9833 16.9226 14.019 16.9102 14.0625 16.8936C14.1502 16.8603 14.2717 16.8109 14.4043 16.7491C14.686 16.6177 14.958 16.4555 15.1055 16.296C15.2332 16.1576 15.3796 15.8953 15.5049 15.6241C15.5638 15.4966 15.6128 15.3796 15.6465 15.295C15.6631 15.2532 15.676 15.2191 15.6846 15.1964C15.6887 15.1853 15.6923 15.1764 15.6943 15.171C15.6952 15.1686 15.6959 15.1663 15.6963 15.1651V15.1642C15.7692 14.9615 15.9643 14.8287 16.1797 14.8341ZM16.1582 16.5313C16.0639 16.6905 15.9573 16.8476 15.8398 16.9747C15.6755 17.1526 15.4646 17.3016 15.2588 17.4249C15.4605 17.5445 15.6665 17.6852 15.8262 17.8448C15.9565 17.9753 16.0701 18.1305 16.167 18.2872C16.264 18.1303 16.3773 17.9753 16.5078 17.8448C16.6711 17.6815 16.8817 17.5373 17.0879 17.4161C16.8821 17.2951 16.6709 17.1523 16.5078 16.9894C16.3732 16.8548 16.2571 16.6932 16.1582 16.5313ZM10.7588 6.91709C10.9716 6.92113 11.1596 7.0594 11.2256 7.26181L11.2266 7.26572C11.2278 7.26934 11.2299 7.27588 11.2324 7.2833C11.2376 7.29862 11.2464 7.32175 11.2568 7.35166C11.2782 7.41261 11.3096 7.50272 11.3516 7.61337C11.436 7.83592 11.5603 8.14384 11.7178 8.48154C12.0404 9.17344 12.4764 9.93161 12.9648 10.3829C13.3843 10.7702 14.1023 11.1596 14.7588 11.463C15.0789 11.6109 15.3706 11.7333 15.582 11.8175C15.6875 11.8595 15.7737 11.8922 15.832 11.9142C15.8608 11.925 15.8837 11.9332 15.8984 11.9386C15.9055 11.9412 15.9116 11.9432 15.915 11.9444L15.9189 11.9464C16.1214 12.0193 16.2552 12.2136 16.25 12.4288C16.2445 12.6441 16.1015 12.8328 15.8955 12.8956L15.8916 12.8966C15.8884 12.8976 15.8834 12.8994 15.877 12.9015C15.8631 12.9058 15.8412 12.9119 15.8135 12.921C15.7579 12.9392 15.6757 12.9668 15.5742 13.003C15.3703 13.0758 15.0879 13.1835 14.7754 13.3214C14.1357 13.6037 13.4251 13.9902 12.9785 14.4366C12.5277 14.8874 12.0892 15.655 11.752 16.3536C11.5873 16.6948 11.4529 17.0053 11.3604 17.2306C11.3141 17.343 11.2789 17.4341 11.2549 17.4962C11.243 17.527 11.2335 17.5507 11.2275 17.5665C11.2247 17.5741 11.2231 17.5803 11.2217 17.5841C11.2211 17.5857 11.22 17.5872 11.2197 17.588V17.589C11.1475 17.7856 10.9595 17.9169 10.75 17.9171C10.5405 17.917 10.3526 17.7856 10.2803 17.589V17.588C10.28 17.5872 10.2798 17.5855 10.2793 17.5841L10.2451 17.4962C10.2211 17.4341 10.1858 17.3428 10.1396 17.2306C10.0471 17.0054 9.91264 16.6947 9.74805 16.3536C9.41093 15.6551 8.97213 14.8874 8.52148 14.4366C8.07504 13.9903 7.36415 13.6037 6.72461 13.3214C6.41221 13.1835 6.12967 13.0758 5.92578 13.003C5.82427 12.9668 5.74214 12.9392 5.68652 12.921C5.659 12.912 5.63697 12.9058 5.62305 12.9015C5.61671 12.8995 5.61157 12.8976 5.6084 12.8966L5.60449 12.8956L5.52832 12.8653C5.36008 12.7823 5.25022 12.6093 5.25 12.4171C5.25 12.197 5.39394 12.0026 5.60449 11.9386L5.6084 11.9376C5.61154 11.9366 5.61656 11.9348 5.62305 11.9327C5.63696 11.9283 5.65888 11.9213 5.68652 11.9122C5.74214 11.894 5.82424 11.8664 5.92578 11.8302C6.12971 11.7574 6.41212 11.6497 6.72461 11.5118C7.3643 11.2295 8.075 10.843 8.52148 10.3966C8.97214 9.94592 9.41088 9.17908 9.74805 8.48056C9.91274 8.13933 10.0471 7.82794 10.1396 7.60263C10.1858 7.49035 10.2211 7.39907 10.2451 7.33701L10.2793 7.24912C10.2799 7.24752 10.28 7.24601 10.2803 7.24521V7.24423C10.3537 7.04441 10.546 6.91339 10.7588 6.91709ZM10.6484 8.91513C10.3054 9.62578 9.80675 10.5254 9.22852 11.1036C8.65244 11.6797 7.81249 12.1223 7.15039 12.4161C7.81246 12.7099 8.65236 13.1535 9.22852 13.7296C9.80675 14.308 10.3055 15.2084 10.6484 15.919C10.6842 15.9931 10.7171 16.067 10.75 16.1378C10.7829 16.0669 10.8158 15.9932 10.8516 15.919C11.1946 15.2083 11.6931 14.308 12.2715 13.7296C12.7812 13.2199 13.4975 12.8147 14.1143 12.5245L14.3955 12.3956C14.3772 12.3872 14.3574 12.3797 14.3389 12.3712C13.6743 12.0641 12.8302 11.6198 12.2861 11.1173C11.6473 10.527 11.1445 9.61852 10.8115 8.90439C10.784 8.84542 10.7599 8.78554 10.7344 8.72861C10.7061 8.78909 10.6787 8.85235 10.6484 8.91513ZM16.1797 4.00009C16.3679 4.00504 16.5354 4.11502 16.6162 4.28037L16.6455 4.35459C16.6457 4.35551 16.6459 4.35748 16.6465 4.35947C16.648 4.36431 16.6509 4.37268 16.6543 4.38291C16.6612 4.40394 16.6715 4.43623 16.6855 4.47568C16.7141 4.55553 16.7567 4.66624 16.8105 4.78818C16.9248 5.04699 17.0686 5.30202 17.2148 5.44834C17.3655 5.5988 17.6463 5.76474 17.9336 5.90341C18.0691 5.9688 18.1934 6.02275 18.2832 6.05966C18.3278 6.07798 18.3646 6.09136 18.3887 6.10068C18.4003 6.10517 18.4093 6.10925 18.415 6.11142C18.4178 6.1124 18.4207 6.11295 18.4219 6.11337L18.4229 6.11435C18.6192 6.18677 18.7499 6.37381 18.75 6.5831C18.7499 6.79251 18.6194 6.98048 18.4229 7.05283H18.4219C18.4207 7.05326 18.4179 7.05468 18.415 7.05576C18.4093 7.05792 18.4002 7.06108 18.3887 7.06552C18.3645 7.07486 18.3279 7.08915 18.2832 7.10752C18.1933 7.14445 18.0691 7.19836 17.9336 7.26377C17.6462 7.40247 17.3654 7.56739 17.2148 7.71787C17.0685 7.86418 16.9249 8.11906 16.8105 8.37802C16.7566 8.50037 16.7141 8.61156 16.6855 8.6915C16.6714 8.73123 16.6612 8.76328 16.6543 8.78427C16.6509 8.79464 16.648 8.80295 16.6465 8.80771C16.6459 8.80977 16.6457 8.81182 16.6455 8.81259C16.5814 9.02281 16.3868 9.16689 16.167 9.16709C15.9471 9.16709 15.7527 9.02282 15.6885 8.81259C15.6882 8.81182 15.6872 8.80978 15.6865 8.80771C15.685 8.80299 15.683 8.79451 15.6797 8.78427C15.6728 8.76332 15.6616 8.73112 15.6475 8.6915C15.619 8.61163 15.5773 8.50013 15.5234 8.37802C15.4092 8.11923 15.2654 7.86425 15.1191 7.71787C14.9686 7.56736 14.6868 7.4025 14.3994 7.26377C14.264 7.19841 14.1396 7.14444 14.0498 7.10752C14.0054 7.08929 13.9694 7.07485 13.9453 7.06552C13.9336 7.06098 13.9238 7.05792 13.918 7.05576C13.9155 7.05482 13.9133 7.0534 13.9121 7.05283H13.9111C13.7113 6.97943 13.5802 6.78717 13.584 6.57431C13.5879 6.36131 13.7262 6.17456 13.9287 6.10849H13.9277L13.9287 6.10752C13.9298 6.10729 13.9321 6.10736 13.9346 6.10654C13.94 6.10468 13.9485 6.10077 13.96 6.09677C13.9833 6.08862 14.019 6.07619 14.0625 6.05966C14.1502 6.02636 14.2718 5.97789 14.4043 5.91611C14.686 5.78473 14.958 5.62255 15.1055 5.46298C15.2332 5.32468 15.3795 5.0623 15.5049 4.79111C15.5638 4.66359 15.6128 4.54659 15.6465 4.46201C15.6632 4.42006 15.676 4.38613 15.6846 4.36337C15.6888 4.35211 15.6923 4.34348 15.6943 4.33798C15.6953 4.33539 15.6959 4.33329 15.6963 4.33212V4.33115C15.7691 4.12831 15.9642 3.99476 16.1797 4.00009ZM16.1582 5.69736C16.0637 5.8568 15.9574 6.01444 15.8398 6.14169C15.6755 6.31951 15.4645 6.46767 15.2588 6.59091C15.4606 6.71049 15.6665 6.85115 15.8262 7.01084C15.9567 7.14142 16.07 7.29726 16.167 7.45419C16.264 7.29715 16.3772 7.14147 16.5078 7.01084C16.6708 6.84786 16.8811 6.70418 17.0869 6.5831C16.8813 6.46209 16.6707 6.3182 16.5078 6.15537C16.3732 6.02071 16.2571 5.85932 16.1582 5.69736Z" fill="#575A66"/>
</svg>
