<svg width="24" height="24" viewBox="0 0 24 24" fill="none" xmlns="http://www.w3.org/2000/svg">
<path d="M0 4C0 1.79086 1.79086 0 4 0H20C22.2091 0 24 1.79086 24 4V20C24 22.2091 22.2091 24 20 24H4C1.79086 24 0 22.2091 0 20V4Z" fill="#F3F8FE"/>
<path d="M5.45255 20C4.65033 20 4 19.3439 4 18.5345V12.6727C4 11.8633 4.65033 11.2072 5.45255 11.2072H7.63137C7.7642 11.2069 7.89642 11.2251 8.02428 11.2614C8.09691 11.0416 8.58714 9.55562 9.25096 8.00003C10.6026 4.82876 11.4298 4.24623 11.9382 4.08137C12.0969 4.0279 12.2632 4.00044 12.4306 4.00003C12.7904 3.99742 13.1353 4.14453 13.3842 4.4067C14.1163 5.15629 14.125 6.7749 14.1206 6.97127V8.98189C14.5135 8.98628 15.0866 8.99068 15.7635 8.99068C16.5028 8.99068 17.216 8.98628 17.8798 8.97749H17.9307C18.5938 8.92251 19.2395 9.2095 19.6468 9.74027C20.0423 10.467 20.109 11.3302 19.8299 12.1099C19.7747 12.4975 19.3687 15.2512 19.1123 17.2061C19.0299 18.1477 18.5361 19.0034 17.7651 19.5406C17.4226 19.7737 17.0323 19.9258 16.6234 19.9853L16.5936 19.9897H7.98724V19.9538C7.87136 19.9833 7.75233 19.9983 7.63282 19.9985L5.45255 20ZM5.08941 12.6727V18.5345C5.08941 18.7369 5.25199 18.9009 5.45255 18.9009H7.63137C7.8023 18.9006 7.94989 18.7801 7.98579 18.6115V12.595C7.94989 12.4264 7.8023 12.3059 7.63137 12.3056H5.45255C5.35611 12.3056 5.26364 12.3443 5.19551 12.4131C5.12739 12.482 5.08921 12.5754 5.08941 12.6727ZM9.07956 18.8906H16.5253C16.7691 18.8427 16.9998 18.7428 17.2022 18.5975C17.6859 18.2294 17.9885 17.6685 18.0323 17.0588C18.3105 14.9581 18.7586 11.9297 18.763 11.9026L18.7717 11.8513L18.7884 11.8044C18.9606 11.3421 18.9499 10.8308 18.7586 10.3763C18.5469 10.1488 18.2395 10.0381 17.9328 10.0788H17.8987C17.2276 10.0876 16.5086 10.092 15.7656 10.092C14.499 10.092 13.5795 10.0788 13.5716 10.0788L13.037 10.07V6.96321C13.0725 6.33785 12.9234 5.71592 12.6085 5.17607C12.5665 5.12264 12.5018 5.09247 12.4342 5.09474C12.3802 5.0979 12.3267 5.10799 12.2752 5.12478C12.1561 5.16361 11.506 5.50434 10.2568 8.43087C9.6584 9.83332 9.19576 11.2057 9.08101 11.5465V12.5657C9.08392 12.6013 9.08537 12.637 9.08537 12.6727V18.5345C9.08537 18.5717 9.08392 18.6073 9.08101 18.6415L9.07956 18.8906Z" fill="#575A66"/>
</svg>
