<svg width="17" height="17" viewBox="0 0 17 17" fill="none" xmlns="http://www.w3.org/2000/svg">
<path d="M2.20056 16.2C1.93779 16.2002 1.67712 16.1492 1.43432 16.0502C1.19152 15.9513 0.971656 15.806 0.785854 15.623C0.600052 15.44 0.452515 15.2234 0.352052 14.9843C0.251589 14.7451 0.199797 14.4884 0.199998 14.2296V4.78403C0.199797 4.52522 0.251589 4.26847 0.352052 4.02932C0.452515 3.79018 0.600052 3.57362 0.785854 3.39062C0.971656 3.20761 1.19152 3.06229 1.43432 2.96334C1.67712 2.86439 1.93779 2.81338 2.20056 2.81358H5.28338C5.39016 2.81358 5.49261 2.8552 5.56811 2.92957C5.64362 3.00394 5.68588 3.10484 5.68588 3.21002C5.68588 3.31519 5.64362 3.41609 5.56811 3.49046C5.49261 3.56483 5.39016 3.60645 5.28338 3.60645H2.20056C1.88399 3.60784 1.58065 3.73249 1.3568 3.95297C1.13295 4.17345 1.0064 4.47222 1.00499 4.78403V14.2266C1.0066 14.5384 1.133 14.8372 1.3568 15.0577C1.58061 15.2781 1.88405 15.4026 2.20056 15.4042H11.8053C12.1218 15.4026 12.4253 15.2781 12.6491 15.0577C12.8729 14.8372 12.9993 14.5384 13.0009 14.2266V11.1417C13.0025 11.0369 13.0458 10.9363 13.1216 10.8628C13.1975 10.7892 13.2999 10.7482 13.4064 10.7482C13.512 10.7488 13.6134 10.7906 13.6881 10.8642C13.7628 10.9378 13.8038 11.0376 13.8044 11.1417V14.2266C13.8046 14.4854 13.7543 14.7422 13.6538 14.9813C13.5534 15.2205 13.4058 15.4385 13.22 15.6215C13.0342 15.8045 12.8129 15.9498 12.5701 16.0488C12.3273 16.1477 12.0666 16.1973 11.8038 16.1971L2.20056 16.2ZM6.64591 9.73511C6.59321 9.68924 6.55493 9.62846 6.53559 9.56186C6.51626 9.49525 6.51698 9.42561 6.53709 9.35923L7.09313 7.24342C7.10846 7.17605 7.14306 7.11421 7.19301 7.06576L14.0563 0.314539C14.0926 0.278034 14.1367 0.249177 14.1845 0.229378C14.2324 0.209579 14.2832 0.200012 14.3351 0.200012C14.387 0.200012 14.4393 0.209579 14.4871 0.229378C14.535 0.249177 14.5775 0.278034 14.6139 0.314539L16.0837 1.75787V1.76815C16.1207 1.80298 16.1502 1.84361 16.1702 1.89002C16.1901 1.93643 16.2003 1.98645 16.2 2.03685C16.199 2.13836 16.157 2.23564 16.0837 2.30701L9.22934 9.0318C9.18473 9.07169 9.13356 9.10308 9.07729 9.1243L7.03201 9.81587C6.99301 9.83403 6.94974 9.84178 6.90679 9.83789C6.80995 9.83815 6.71679 9.80156 6.64591 9.73658V9.73511ZM7.82358 7.53414L7.47774 8.85414L8.74038 8.42833L8.74933 8.43714L15.2623 2.03538L14.341 1.13238L7.82358 7.53414Z" fill="#575A66" stroke="#575A66" stroke-width="0.4"/>
</svg>
